<svg xmlns="http://www.w3.org/2000/svg"
    width="40"
    height="40"
    viewBox="0 0 10 10">
        <path
            fill="#999"
            d="M 0,0 0,10 10,10 10,0" />
        <path
            fill="#FFF"
            d="M 1.5,3.75 1.75,3.75 1.75,4 2,4 2,4.25 2.25,4.25 2.25,4.5 7.75,4.5 7.75,4.25 8,4.25
            8,4 8.25,4 8.25,3.75 8.5,3.75z" />
        <path
            fill="#964"
            d="M 2,5 L3.25,5 3.25,5.75 3.5,5.75 3.5,6.25 3.75,6.25 3.75,6.75 4,6.75 4,8 4.25,8 4.25,8.5
             5.75,8.5 5.75,8 6,8 6,6.75 6.25,6.75 6.25,6.25 6.50,6.25 6.50,5.75 6.75,5.75 6.75,5 8,5
                8,4.5 6.75,4.5 6.75,3.75 6.5,3.75 3.5,3.75 3.25,3.75 3.25,4.5 2,4.5z" />
        <path
            fill="#000"
            d="M 4.25,7 4.25,7.75 4.75,7.75 4.75,7.25 4.5,7.25 4.5,7 z" />

        <path
            fill="#000"
            d="M 5.25,7.25 5.25,7.75 5.75,7.75 5.75,7 5.5,7 5.5,7.25 z" />
        <path
            fill="#000"
            d="M 3.5,4.5 3.5,5 4,5 4,4.5 z" />

        <path
            fill="#000000"
            d="M 6,4.5 6,5 6.5,5 6.5,4.5 z" />
        <path
            fill="#000000"
            d="M 1.75,3.75 2.25,3.75 2.25,3.25 2,3.25 2,2.75 1.75,2.75z" />

        <path
            fill="#000000"
            d="M 8.25,3.75 8.25,2.75 8,2.75 8,3.25 7.75,3.25 7.75,3.75z" />

</svg>