<svg xmlns="http://www.w3.org/2000/svg"
    width="40"
    height="40"
    viewBox="0 0 10 10">
        <path
            fill="#999"
            d="M 0,0 0,10 10,10 10,0" />
        <path
            fill="#964"
            d="M 3.5,5.75 L3.5,6.25 3.75,6.25 3.75,6.75 4,6.75 4,8 4.25,8 4.25,8.5
             5.75,8.5 5.75,8 6,8 6,6.75 6.25,6.75 6.25,6.25 6.50,6.25 6.50,3.75 6.25,3.75 6.25,3
             6.5,3 6.5,2.75 6.75,2.75 6.75,1.75 6.5,1.75 6.5,2 6.25,2 6.25,2.25 6,2.25 6,2.75
             5.75,2.75 5.75,2.5 4.25,2.5 4.25,2.75 4,2.75 4,2.25 3.75,2.25 3.75,2 3.5,2 3.5,1.75
             3.25,1.75 3.25,2.75 3.5,2.75 3.5,3 3.75,3 3.75,3.75 3.5,3.75z" />
        <path
            fill="#FFF"
            d="M 4,6.75 L 4,8 4.25,8 4.25,8.5
             5.75,8.5 5.75,8 6,8 6,6.75 5.75,6.75 5.75,6.5 5.5,6.5 5.5,6.25 5.25,6.25 5.25,4 5,4
             5,3.75 4.75,3.75 4.75,3.5 4.5,3.5 4.5,4.5 4.75,4.5 4.75,6.25 4.5,6.25 4.5,6.5 4.25,6.5
             4.25,6.75z" />
        <path
            fill="#000"
            d="M 4.25,7 4.25,7.75 4.75,7.75 4.75,7.25 4.5,7.25 4.5,7 z" />
        <path
            fill="#000"
            d="M 5.25,7.25 5.25,7.75 5.75,7.75 5.75,7 5.5,7 5.5,7.25 z" />
        <path
            fill="#000"
            d="M 3.5,4.5 3.5,5 4,5 4,4.5 z" />
        <path
            fill="#000000"
            d="M 6,4.5 6,5 6.5,5 6.5,4.5 z" />
        <path
            fill="#000000"
            d="M 4,3.5 L4.25,3.5 4.25,4 4.5,4 4.5,3.5 4.75,3.5 4.75,3.75 5,3.75 5,4 5.25,4 5.25,4.25
            5.5,4.25 5.5,3.75 5.25,3.75 5.25,3.25 5.5,3.25 5.5,3.5 5.75,3.5 5.75,3.75 6,3.75 6,2.75
            5.75,2.75 5.75,2.5 4.25,2.5 4.25,2.75 4,2.75z" />

</svg>